<svg width="127" height="46" viewBox="0 0 127 46" fill="none" xmlns="http://www.w3.org/2000/svg">
<g clip-path="url(#clip0_1366_702)">
<g clip-path="url(#clip1_1366_702)">
<g clip-path="url(#clip2_1366_702)">
<g clip-path="url(#clip3_1366_702)">
<g clip-path="url(#clip4_1366_702)">
<g clip-path="url(#clip5_1366_702)">
<g clip-path="url(#clip6_1366_702)">
<g clip-path="url(#clip7_1366_702)">
<path d="M55.0127 31.6782C53.4366 31.6782 52.0338 31.3158 50.8044 30.591C49.575 29.8629 48.6104 28.8446 47.9106 27.5361C47.2077 26.2243 46.8562 24.6865 46.8562 22.9225C46.8562 21.1585 47.2077 19.6206 47.9106 18.3089C48.6104 16.9971 49.575 15.9788 50.8044 15.254C52.0338 14.5292 53.4366 14.1667 55.0127 14.1667C56.5889 14.1667 57.9917 14.5292 59.2211 15.254C60.4504 15.9788 61.415 16.9971 62.1149 18.3089C62.8178 19.6206 63.1693 21.1585 63.1693 22.9225C63.1693 24.6865 62.8178 26.2243 62.1149 27.5361C61.415 28.8446 60.4504 29.8629 59.2211 30.591C57.9917 31.3158 56.5889 31.6782 55.0127 31.6782ZM55.0127 28.6955C56.116 28.6955 57.0381 28.4469 57.7789 27.9498C58.5197 27.4527 59.076 26.7696 59.448 25.9004C59.8168 25.028 60.0012 24.0354 60.0012 22.9225C60.0012 21.8064 59.8168 20.8137 59.448 19.9446C59.076 19.0754 58.5197 18.3923 57.7789 17.8952C57.0381 17.398 56.116 17.1495 55.0127 17.1495C53.9094 17.1495 52.9874 17.398 52.2466 17.8952C51.5058 18.3923 50.951 19.0754 50.5822 19.9446C50.2102 20.8137 50.0243 21.8064 50.0243 22.9225C50.0243 24.0354 50.2102 25.028 50.5822 25.9004C50.951 26.7696 51.5058 27.4527 52.2466 27.9498C52.9874 28.4469 53.9094 28.6955 55.0127 28.6955ZM68.8434 31.3415H65.8172V14.5035H68.7961L75.8651 25.376V14.5035H78.8913V31.3415H76.4089L68.8434 19.7954V31.3415ZM87.3268 31.6782C86.6586 31.6782 85.9698 31.6125 85.2605 31.481C84.5513 31.3463 83.894 31.1859 83.2888 30.9999C82.6804 30.8107 82.1997 30.6279 81.8466 30.4515L82.2012 27.1801C82.7529 27.4527 83.3266 27.7045 83.9224 27.9354C84.5245 28.1695 85.1407 28.3587 85.7712 28.5031C86.4017 28.6474 87.0384 28.7195 87.6815 28.7195C88.4853 28.7195 89.1315 28.5592 89.6201 28.2385C90.1119 27.9177 90.3578 27.4286 90.3578 26.7712C90.3578 26.2644 90.2191 25.8571 89.9417 25.5492C89.6674 25.2413 89.245 24.9655 88.6745 24.7217C88.107 24.4748 87.382 24.1958 86.4994 23.8847C85.6199 23.5703 84.8287 23.2159 84.1257 22.8215C83.4227 22.4238 82.8679 21.9202 82.4613 21.3109C82.0515 20.7015 81.8466 19.9237 81.8466 18.9776C81.8466 18.0475 82.0704 17.22 82.518 16.4952C82.9657 15.7672 83.6371 15.1979 84.5323 14.7873C85.4276 14.3736 86.5419 14.1667 87.8753 14.1667C88.8809 14.1667 89.8408 14.2806 90.755 14.5083C91.6723 14.7392 92.454 14.9862 93.1003 15.2492L92.7882 18.4003C91.8583 17.9737 90.9867 17.6514 90.1734 17.4333C89.3569 17.212 88.5263 17.1014 87.6815 17.1014C86.802 17.1014 86.1211 17.2489 85.6388 17.544C85.1596 17.8422 84.9201 18.288 84.9201 18.8814C84.9201 19.3528 85.0525 19.7329 85.3173 20.0215C85.5852 20.3102 85.9682 20.5572 86.4663 20.7624C86.9612 20.9677 87.557 21.1826 88.2536 21.4071C89.4483 21.7919 90.4539 22.2153 91.2704 22.6771C92.0868 23.139 92.7015 23.6954 93.1144 24.3465C93.5274 25.0008 93.7339 25.809 93.7339 26.7712C93.7339 27.2522 93.6598 27.775 93.5116 28.3395C93.3603 28.904 93.0656 29.4396 92.6274 29.9463C92.1829 30.4499 91.5383 30.8652 90.6935 31.1923C89.8455 31.5163 88.7233 31.6782 87.3268 31.6782ZM99.2661 31.3415H96.2399V14.5035H99.2661V31.3415ZM109.149 31.3415H106.122V17.4862H101.441V14.5035H113.83V17.4862H109.149V31.3415ZM126.833 31.3415H116.005V14.5035H126.596V17.4862H119.102V21.0703H124.918V24.053H119.102V28.3587H126.833V31.3415Z" fill="#2B2E39"/>
</g>
</g>
</g>
</g>
<g clip-path="url(#clip8_1366_702)">
<g clip-path="url(#clip9_1366_702)">
<path d="M21.4004 45.845C9.60635 45.845 0.0107422 36.0827 0.0107422 24.083C0.0107422 18.0857 2.47917 12.2959 6.78387 8.19545C7.87813 7.15756 9.58781 7.21553 10.6106 8.32334C11.6307 9.43392 11.5751 11.1761 10.4836 12.2154C7.21977 15.3236 5.42282 19.5381 5.42282 24.0835C5.42282 33.0477 12.5898 40.3396 21.4004 40.3396C30.2111 40.3396 37.378 33.0477 37.378 24.0835C37.378 19.6403 35.6471 15.4892 32.5049 12.3971C31.4319 11.3404 31.403 9.59678 32.4416 8.50368C33.4803 7.41473 35.1927 7.37977 36.2684 8.43928C40.4727 12.5784 42.7906 18.135 42.7906 24.0835C42.7901 36.0827 33.1945 45.845 21.4004 45.845Z" fill="#2ECC40"/>
<path d="M21.4004 23.5503C19.9046 23.5503 18.6941 22.3173 18.6941 20.7968V2.75343C18.6941 1.23295 19.9046 0 21.4004 0C22.8962 0 24.1066 1.23295 24.1066 2.75343V20.7973C24.1062 22.3178 22.8962 23.5503 21.4004 23.5503Z" fill="#2ECC40"/>
</g>
</g>
</g>
</g>
</g>
</g>
<defs>
<clipPath id="clip0_1366_702">
<rect width="127" height="46" fill="white"/>
</clipPath>
<clipPath id="clip1_1366_702">
<rect width="127" height="46" fill="white" transform="translate(-0.0769043 -0.0775146)"/>
</clipPath>
<clipPath id="clip2_1366_702">
<rect width="126.824" height="45.845" fill="white" transform="translate(0.0107422)"/>
</clipPath>
<clipPath id="clip3_1366_702">
<rect width="126.824" height="45.845" fill="white" transform="translate(0.0107422)"/>
</clipPath>
<clipPath id="clip4_1366_702">
<rect width="79.9814" height="17.5115" fill="white" transform="translate(46.8538 14.1667)"/>
</clipPath>
<clipPath id="clip5_1366_702">
<rect width="79.9814" height="17.5115" fill="white" transform="translate(46.8538 14.1667)"/>
</clipPath>
<clipPath id="clip6_1366_702">
<rect width="79.9814" height="17.5115" fill="white" transform="translate(46.8538 14.1667)"/>
</clipPath>
<clipPath id="clip7_1366_702">
<rect width="79.9814" height="17.5115" fill="white" transform="translate(46.8538 14.1667)"/>
</clipPath>
<clipPath id="clip8_1366_702">
<rect width="42.7798" height="45.845" fill="white" transform="translate(0.0107422)"/>
</clipPath>
<clipPath id="clip9_1366_702">
<rect width="42.7798" height="45.845" fill="white" transform="translate(0.0107422)"/>
</clipPath>
</defs>
</svg>
