<svg width="32" height="32" viewBox="0 0 32 32" fill="none" xmlns="http://www.w3.org/2000/svg">
<circle cx="16" cy="16" r="15.5" stroke="#2FCC40"/>
<g clip-path="url(#clip0_1373_1378)">
<path d="M15.9999 29.818C23.6296 29.818 29.8181 23.6294 29.8181 15.9998C29.8181 8.3702 23.6296 2.18164 15.9999 2.18164C8.37032 2.18164 2.18176 8.3702 2.18176 15.9998C2.18176 23.6294 8.37032 29.818 15.9999 29.818ZM15.0129 8.10373C15.0129 7.56085 15.4571 7.11669 15.9999 7.11669C16.5428 7.11669 16.987 7.56085 16.987 8.10373V15.5261L21.5519 19.178C21.9764 19.5185 22.0454 20.1403 21.7049 20.5648C21.6127 20.6805 21.4956 20.7739 21.3623 20.8379C21.229 20.902 21.0829 20.9352 20.935 20.9349C20.7178 20.9349 20.5007 20.8657 20.3181 20.7177L15.3831 16.7697C15.1511 16.5822 15.013 16.3009 15.013 15.9998V8.10373H15.0129Z" fill="#ACB0C3"/>
</g>
<defs>
<clipPath id="clip0_1373_1378">
<rect width="27.6364" height="27.6364" fill="white" transform="translate(2.18176 2.18164)"/>
</clipPath>
</defs>
</svg>
